<!-- icon666.com - MILLIONS vector ICONS FREE --><svg id="Layer_1" enable-background="new 0 0 512 512" viewBox="0 0 512 512" xmlns="http://www.w3.org/2000/svg"><path d="m437.019 74.981c-48.352-48.352-112.639-74.981-181.019-74.981s-132.667 26.629-181.019 74.981-74.981 112.639-74.981 181.019 26.628 132.667 74.98 181.019 112.64 74.981 181.02 74.981 132.667-26.628 181.019-74.98 74.981-112.64 74.981-181.02-26.629-132.667-74.981-181.019zm-22.627 339.411c-87.338 87.337-229.446 87.337-316.784 0-87.337-87.338-87.337-229.446 0-316.784 43.669-43.669 101.03-65.503 158.392-65.503s114.723 21.834 158.392 65.503c87.337 87.338 87.337 229.446 0 316.784zm-53.741-240.416-82.024 82.024 82.024 82.024c6.249 6.248 6.249 16.379 0 22.627-3.124 3.124-7.219 4.687-11.313 4.687s-8.189-1.563-11.313-4.687l-82.025-82.024-82.024 82.024c-3.124 3.124-7.219 4.687-11.313 4.687s-8.189-1.563-11.313-4.687c-6.249-6.248-6.249-16.379 0-22.627l82.023-82.024-82.024-82.024c-6.249-6.248-6.249-16.379 0-22.627 6.248-6.248 16.379-6.248 22.627 0l82.024 82.024 82.024-82.024c6.248-6.248 16.379-6.248 22.627 0 6.249 6.248 6.249 16.379 0 22.627z"></path></svg>